<?xml version="1.0" encoding="UTF-8"?>
<svg xmlns="http://www.w3.org/2000/svg" viewBox="0 0 1284.97 1000">
  <defs>
    <style>
      .cls-1 {
        fill: #fff;
      }

      .cls-2 {
        fill: #0b1429;
      }

      .cls-3 {
        fill: #0063ad;
      }
    </style>
  </defs>
  <rect class="cls-1" width="1284.97" height="1000"/>
  <g id="Layer_1" data-name="Layer 1">
    <rect class="cls-3" width="1095" height="1000"/>
    <g>
      <path class="cls-1" d="M927.41,655.37c-67.28,27.37-145.76,25.77-207.87-14.82-25.12-16.42-42.05-40.48-51.84-68.75-12.4-35.81-12.58-72.02-7.43-109.58,5.98-43.61,27.34-84.19,66.49-106.27,66.13-37.31,155.3-36.61,221.16,3.64,27.25,16.65,45.5,41.14,54.67,71.73,12.85,42.86,14.02,86.41,2.92,129.32-11.07,42.82-36.38,77.76-78.12,94.74ZM861.9,585.92c17.38-6,25.56-20.45,26.98-37.47,2.87-34.45,4.66-68.1-1.97-101.75-7.86-39.87-57.48-40.05-83.79-27.32-10.82,5.23-18.1,17.03-19.53,29.49-3.82,33.36-4.74,66.84-.27,99.97,2.22,16.46,10.25,31.55,25.78,37.04,16.76,5.92,35.54,6.01,52.81.05Z"/>
      <path class="cls-1" d="M598.31,655.03c-55.7,30.96-134.33,20.32-187.8-11.06l-1.42,22.49-72.98-.03.05-122.46,66.5.21c25.55,45.85,88.02,61.08,135.85,46.08,3.51-1.1,7.64-5.82,7.56-8.69-.09-3.23-4.29-9.73-8.17-10.93l-126-39.04c-29.01-8.99-54.98-28.14-68.94-55.52-15.24-29.9-12.44-67.4,4.19-96.02,37.09-63.82,158.73-63.93,218.19-22.35l2.27-19.75,70.4.06.02,113.86-68.36-.04c-25.83-37.73-83.11-54.01-124.29-45.89-4.94.97-10.23,8.27-10.38,12.16-.15,3.88,4.54,11.24,9.54,12.71l118.08,34.62c28.51,8.36,52.4,23.22,68.73,47.65,32.38,48.43,18.22,113.43-33.06,141.94Z"/>
      <polygon class="cls-1" points="316.9 666.37 104.5 666.45 104.44 584.38 151.36 584.08 151.41 415.72 104.17 415.88 104.5 332.46 316.65 332.55 317.12 413.83 267.73 414.5 267.73 585.31 316.54 585.78 316.9 666.37"/>
      <path class="cls-1" d="M554.93,716.4c30.06,1.7,56.95,5.16,87.15,11.04l10.02-18.89c1.45-2.73,4.4-6.03,6.65-6.92,2.26-.89,9.81,1.79,8.94,4.08l-9.54,25.02,63.46,23.15c14.53-15.83,26.88-32.44,39.2-50.44,3.35-1.58,9.52-1.61,15.09-.54-11.71,21.09-25.18,37.63-41.04,57.4l30.56,18.41c3.07,1.85,10.5,3.79,12.83,1.87,26.05-21.4,47.29-45.16,67.03-72.07,4.56-6.22,11.79-9.76,18.6-4.42-32.52,48.07-71.67,89.27-121.72,118.91-175.86,104.15-400.05,52.93-512.77-119.13,7.27-4.77,15.04-1.28,19.28,4.69,20.41,28.73,43.14,53.95,72.04,75.24l38.38-22.28c-15.15-19.82-28.37-36.15-41.79-57.63,4.58-3.16,12.47-3.37,15.09.29,12.68,17.67,25.16,34.45,39.82,50.47l65.46-23.56-11.46-27.42c.88-1.04,6.63-2.79,8.89-2.48,2.62.36,5.91,3.87,7.47,6.73l10.54,19.34c29.67-5.38,56.11-8.74,85.91-10.74l1.92-12.57c.47-3.09,9.52-2.33,12.41-1.13l1.56,13.57ZM540.62,812.17l-.42-81.34c-28.31,1.02-53.65,3.37-80.63,10.61,14.48,28.33,30.52,51.53,48.93,75.84l32.11-5.12ZM587.66,816.97c18.77-25.61,34.73-48.46,48.43-75.95-28.35-6.54-53.76-9.62-81.77-9.79v81.59c12.03,2.18,21.61,3.54,33.34,4.15ZM493.94,821.78c-19.08-27.21-34.25-50.65-49.4-77.72-20.87,5.93-40.32,12.23-60.66,22.44,25.87,27.27,54.44,47.28,85.93,65.62l24.12-10.34ZM623.19,831.5c32.68-18.1,61.4-37.89,86.51-66.09-19.27-9.51-39.33-16.2-59.35-20.3-15.75,27.6-30.67,50.6-49.02,76.86l21.87,9.53ZM436.34,845.74c8.89,2.89,18.44,2.28,19.17-6.66-31.71-18.81-59.16-40.7-84.97-66.71-5.54,3.43-42.58,17.4-32.57,24.72,28.96,21.15,63.12,37.18,98.37,48.66ZM761.42,792.64l-37.12-20.94-36.32,32.59c-14.74,13.23-32.33,23.43-48.54,35.08-1.64,28.58,114.37-35.02,121.99-46.72ZM621.32,855.63c2.23-.4,5.53-1.89,5.33-3.01-.21-1.12-2.08-4.32-3.15-4.94-47.18-27.73-111.28-28.97-157.47,5.1,52.81,13.89,104.33,12.07,155.29,2.85Z"/>
      <path class="cls-1" d="M557.72,281.9c-10.43.64.95,16.44-12.74,15.22-4.47-.4-7.27-4.22-7.38-9.42-.04-1.9.21-4.11-.44-4.46-.97-.52-3.65-1.43-5.42-1.55-26.18-1.74-53.82-4.63-82.12-10.34l-11.16,22.36c-1.96,3.92-12.79,4.36-14.3.42l10.3-25.99-62.98-22.71c-13.38,13.38-25.54,29.41-36.71,45.48-3.94,5.67-10.24,8.78-17.9,4.61,12.19-20.97,26.14-38.7,40.7-57.27l-38.08-22.47c-29.04,20.93-52.98,48.23-74.59,77.48-3.18,4.3-11.35,4.12-16.23,1.41,29.67-44.42,66.37-82.67,111.98-111.4,177.04-111.53,404.4-63.63,521.36,110.41-3.1,3.14-12.91,3.8-15.41.34-21.75-30.15-45.35-55.8-75.59-78.93l-37.88,22.19c15.49,19.98,28.57,37.18,41.13,57.39-6.71,3.25-13.71,2.42-17.3-2.8-11.61-16.9-23.71-32.98-37.86-47.51l-64.16,22.87,10.49,27.32c-1.96,2.27-12.33,3.07-14.08-.27l-11.97-22.91c-27.77,5.63-53.17,8.79-81.66,10.53ZM553.42,172.2c25.75-3.21,50.5-7.23,72.13-25.96-53.28-13.21-108.61-13.57-162.28.18,26.03,21.86,58.12,26.29,90.14,25.78ZM368.77,227.4c26.7-26.9,54.23-47.26,84.92-66.26-.65-6.59-8.34-10.64-15.53-8.41-35.94,11.12-71.46,28.32-102.32,49.5-.96.66-2.63,3.36-2.4,4.3.23.94,1.89,3.23,3.05,3.84l32.28,17.03ZM757.24,205.37c-8.06-10.23-122.66-74.68-120.08-45.03,30.66,18.78,58.44,39.93,84.19,66.05,13.1-6.42,24.26-12.85,35.88-21.02ZM442.08,254.57c15.11-26.4,29.98-49.82,48.8-75.66-5.98-5.24-14.09-8.42-22.43-10.52-30.94,17.45-58.22,37.32-85.54,64.42,18.45,10.71,38.64,15.94,59.18,21.76ZM707.54,232.42c-25.16-27.18-53.86-47.03-85.75-64.54-8.66,2.13-16.44,5.42-23.53,9.84,17.88,25.65,33.13,49.38,48.98,75.98,21.37-4.88,40.83-11.32,60.3-21.29ZM537.97,266.97l-.2-80.92-32.1-3.57c-18.69,24.55-35.68,47.43-49.14,75.56,28.13,6.42,53.63,9.55,81.44,8.92ZM632.21,257.14c-15.06-28.65-30.94-52.5-49.66-74.97l-29.82,4.58c-.61,27.53-.64,53.31.45,80.61,27.97-.65,52.49-2.59,79.03-10.22Z"/>
    </g>
    <g>
      <path class="cls-2" d="M1200.21,27.33c-46.77,0-84.73,37.92-84.73,84.73s37.95,84.73,84.73,84.73,84.76-37.95,84.76-84.73-37.95-84.73-84.76-84.73ZM1200.21,184.13c-39.81,0-72.07-32.27-72.07-72.07s32.27-72.11,72.07-72.11,72.11,32.27,72.11,72.11-32.27,72.07-72.11,72.07Z"/>
      <path class="cls-2" d="M1230.46,141.1c-4.17-7.4-7.47-12.55-9.96-15.48-2.46-2.89-5.55-5.55-9.35-7.97,7.6-1.21,13.32-4.17,17.13-8.82,3.84-4.64,5.75-10.57,5.75-17.7,0-5.65-1.28-10.67-3.8-15.04-2.52-4.37-5.85-7.4-10.06-9.12-4.21-1.72-10.94-2.56-20.19-2.56h-36.81v95.29h17.5v-39.81h3.53c4.04,0,6.97.37,8.82,1.08s3.6,2.05,5.25,3.97c1.65,1.92,4.74,6.6,9.22,14l12.65,20.76h20.93l-10.6-18.61ZM1193.61,104.69h-12.95v-24.16h13.66c7.07,0,11.34.1,12.75.3,2.83.54,5.05,1.78,6.6,3.73,1.55,1.99,2.32,4.58,2.32,7.77,0,2.86-.57,5.25-1.78,7.17-1.18,1.88-2.79,3.23-4.88,4.04-2.09.77-7.34,1.14-15.71,1.14Z"/>
    </g>
  </g>
</svg>