<?xml version="1.0" encoding="UTF-8"?>
<svg id="Layer_2" xmlns="http://www.w3.org/2000/svg" xmlns:xlink="http://www.w3.org/1999/xlink" viewBox="0 0 165.61 165.61">
  <defs>
    <style>
      .cls-1 {
        fill: #231f20;
      }

      .cls-2 {
        fill: url(#New_Gradient_Swatch_copy_5);
      }

      .cls-3 {
        fill: #2e3192;
      }

      .cls-4 {
        fill: #00aeef;
      }
    </style>
    <linearGradient id="New_Gradient_Swatch_copy_5" data-name="New Gradient Swatch copy 5" x1="211.44" y1="74.22" x2="211.98" y2="74.22" gradientTransform="translate(-41.72 -107.82) rotate(45)" gradientUnits="userSpaceOnUse">
      <stop offset="0" stop-color="#b78f5d"/>
      <stop offset=".06" stop-color="#bc9562"/>
      <stop offset=".51" stop-color="#e5c185"/>
      <stop offset="1" stop-color="#b78f5d"/>
    </linearGradient>
  </defs>
  <g id="Layer_1-2" data-name="Layer_1">
    <g>
      <path class="cls-2" d="M55.64,94.59c-.1-.16-.2-.31-.3-.46,0,0,0,0,0,.01.1.15.2.3.3.44Z"/>
      <path class="cls-3" d="M141.04,126.56c3.05-11.56,2.43-23.89-1.84-35.15-1.5-3.94-3.44-7.75-5.85-11.34,0,.01,0,.02,0,.03,0,0,0,.01,0,.02.09.44.17.89.24,1.34.07.37.13.76.19,1.14.1.62.18,1.23.25,1.86,0,.04.01.09.02.12.04.34.08.68.11,1.02l.02.18s0,.03,0,.05c.04.41.08.83.11,1.26.11,1.43.16,2.87.16,4.34,0,1.46-.05,2.91-.16,4.34-.03.44-.07.87-.11,1.31,0,.06-.01.12-.02.18-.03.35-.07.69-.11,1.02-.02.17-.04.34-.07.51-.04.4-.1.79-.16,1.18,0,.02,0,.05-.01.08-.05.4-.12.79-.19,1.19-.02.11-.04.22-.05.33,0,.02-.01.04-.01.07-.07.37-.15.75-.22,1.13,0,.01,0,.03,0,.04h0s-.39.59-.39.59c.14-.19.27-.38.39-.57-.11.53-.22,1.06-.34,1.58-.12.53-.25,1.05-.38,1.57-.11.42-.22.84-.35,1.26-.01.04-.02.09-.03.13-.08.29-.17.57-.25.85-.12.43-.26.85-.4,1.27-.16.47-.31.94-.48,1.4-.04.1-.07.2-.11.3-.14.36-.27.73-.41,1.09-.36.92-.74,1.83-1.14,2.73-4.93,10.98-13.21,20.13-23.54,26.14-7.08,4.13-15.13,6.79-23.71,7.56,1.09,1.32,2.27,2.6,3.5,3.84,5.93,5.93,12.83,10.3,20.2,13.1,7.37-2.79,14.28-7.16,20.22-13.09,1.24-1.24,2.41-2.52,3.51-3.84,5.53-6.62,9.34-14.18,11.43-22.11Z"/>
      <path class="cls-3" d="M24.5,39.05c-3.05,11.57-2.43,23.89,1.84,35.14.2.53.41,1.06.63,1.59.01.03.02.05.03.09.15.34.29.68.43,1.02.01.02.02.04.03.07.2.45.4.89.61,1.33h0c.11.24.23.49.35.72.15.33.31.64.47.96.02.04.04.09.07.12.2.4.41.79.63,1.18.05.09.1.19.16.29h0c.23.42.46.83.7,1.24.14.23.27.46.41.69s.29.46.43.69c.28.46.58.91.88,1.35-.74-3.66-1.12-7.45-1.12-11.33,0-3.89.39-7.69,1.12-11.36.85-4.25,2.17-8.34,3.91-12.19,4.94-10.99,13.23-20.14,23.56-26.15,7.08-4.14,15.12-6.8,23.71-7.56-1.09-1.32-2.27-2.6-3.51-3.84-5.94-5.94-12.84-10.3-20.21-13.09-7.37,2.79-14.27,7.16-20.21,13.1-1.24,1.24-2.41,2.52-3.51,3.85-5.53,6.61-9.33,14.18-11.43,22.1Z"/>
      <path class="cls-4" d="M91.42,30.46c3.89,0,7.68.38,11.35,1.12,4.25.85,8.34,2.17,12.19,3.91,10.99,4.94,20.14,13.22,26.15,23.55,4.13,7.08,6.79,15.13,7.56,23.72,1.33-1.1,2.61-2.27,3.85-3.51,5.94-5.94,10.3-12.85,13.09-20.22-2.8-7.37-7.17-14.27-13.1-20.2-1.24-1.24-2.51-2.41-3.84-3.5-6.61-5.54-14.18-9.34-22.11-11.43-11.56-3.06-23.89-2.44-35.14,1.83-3.95,1.5-7.77,3.45-11.38,5.86,3.68-.74,7.49-1.13,11.38-1.13Z"/>
      <path class="cls-4" d="M77.38,137.17c.38-.17.77-.35,1.15-.53.03-.02.07-.04.11-.05.06-.03.12-.06.18-.09.36-.16.7-.33,1.05-.51.41-.21.82-.42,1.24-.65.22-.11.44-.23.65-.36.05-.03.1-.05.15-.09.3-.17.6-.34.89-.51.44-.25.87-.51,1.31-.79.06-.04.11-.07.17-.1h0c.43-.27.85-.54,1.26-.82-.01,0-.02,0-.03,0,0,0-.01,0-.02,0-.05,0-.1.02-.15.03-.4.08-.79.15-1.19.22-.46.09-.92.16-1.37.23-.03,0-.05,0-.07,0-.38.05-.75.11-1.13.16-.43.05-.85.1-1.27.15-.29.03-.59.06-.88.08-.02,0-.03,0-.05,0-.03,0-.07,0-.1,0-.25.03-.5.05-.76.07-1.43.11-2.87.16-4.34.16-1.46,0-2.91-.05-4.34-.16-.21-.02-.42-.03-.63-.05-.21-.02-.42-.04-.63-.05-.02,0-.03,0-.05,0-.06,0-.12-.01-.18-.02-.34-.04-.68-.08-1.02-.11-.04,0-.09-.01-.12-.02-.31-.04-.63-.08-.93-.12-.31-.04-.62-.09-.93-.14-.38-.06-.77-.12-1.14-.19-.4-.07-.8-.14-1.19-.22-.05,0-.1-.02-.15-.03,0,0-.01,0-.02,0-.01,0-.02,0-.03,0-.02,0-.03,0-.05,0-.44-.09-.88-.19-1.33-.29-.16-.03-.33-.08-.49-.11-.07-.02-.13-.03-.2-.05-.28-.07-.56-.14-.85-.22-.13-.02-.25-.06-.37-.09-.48-.12-.95-.25-1.42-.39-.42-.11-.83-.24-1.24-.37-.06-.02-.11-.03-.16-.05-.3-.09-.6-.18-.89-.29-.04,0-.08-.02-.11-.03-.32-.1-.63-.21-.95-.33-.41-.15-.8-.29-1.2-.44-.35-.13-.68-.27-1.01-.41-.3-.12-.6-.24-.9-.37,0,0-.02-.02-.03-.02-.34-.14-.67-.29-1-.43-10.98-4.94-20.12-13.21-26.15-23.54-4.12-7.08-6.78-15.13-7.54-23.72-1.33,1.1-2.61,2.27-3.85,3.51-5.94,5.94-10.3,12.84-13.1,20.21,2.79,7.37,7.16,14.27,13.1,20.21,1.24,1.24,2.52,2.41,3.84,3.51,6.61,5.53,14.18,9.34,22.11,11.43,11.56,3.05,23.88,2.43,35.13-1.84.54-.2,1.08-.42,1.6-.64.53-.22,1.07-.45,1.59-.69Z"/>
      <path class="cls-1" d="M117.51,88.54l7.32-2.1c.3-3.43.18-6.83-.33-10.12l-7.45-1.6c-.35-1.47-.79-2.92-1.32-4.32l5.28-5.47c-1.44-3.07-3.24-5.95-5.36-8.59l-7.24,2.34c-1.03-1.1-2.13-2.13-3.29-3.09l1.84-7.38c-2.74-1.92-5.73-3.52-8.94-4.76l-5.1,5.64c-1.06-.32-2.14-.59-3.25-.81-.38-.08-.77-.13-1.14-.2l-2.1-7.32c-3.43-.3-6.83-.18-10.12.33l-1.6,7.45c-1.47.35-2.91.78-4.32,1.31l-5.47-5.28c-3.07,1.44-5.96,3.24-8.59,5.36l2.34,7.24c-1.1,1.03-2.13,2.12-3.09,3.29l-7.38-1.84c-1.92,2.74-3.52,5.73-4.76,8.94l5.64,5.1c-.32,1.06-.59,2.14-.81,3.25-.08.38-.14.76-.2,1.15l-7.32,2.1c-.3,3.43-.18,6.82.33,10.12l7.45,1.6c.35,1.47.79,2.91,1.32,4.32l-5.28,5.47c1.44,3.07,3.24,5.96,5.36,8.6l7.24-2.34c1.03,1.1,2.12,2.13,3.29,3.09l-1.84,7.38c2.74,1.92,5.73,3.52,8.94,4.76l5.1-5.64c1.06.32,2.14.59,3.25.81.38.08.76.13,1.14.2l2.1,7.32c3.43.3,6.83.18,10.12-.33l1.6-7.45c1.47-.35,2.91-.78,4.32-1.32l5.47,5.28c3.07-1.44,5.95-3.24,8.59-5.36l-2.34-7.24c1.09-1.03,2.13-2.13,3.09-3.29l7.37,1.84c1.92-2.74,3.52-5.73,4.76-8.94l-5.64-5.1c.31-1.06.59-2.14.81-3.25.08-.38.13-.76.2-1.14ZM82.8,111.86c-16.05,0-29.06-13.01-29.06-29.06s13.01-29.06,29.06-29.06,29.06,13.01,29.06,29.06-13.01,29.06-29.06,29.06Z"/>
      <path class="cls-1" d="M77.4,73.92v-2.66c-.53,0-1.14.3-1.14,1.53v3.35h-8.25c.07-.93.16-2.43.67-3.57.79-1.79,2-2.7,4.56-2.67v1.53c-1.26,0-2.14.14-2.8,1.36-.27.51-.43,1.27-.5,1.72h4.53c.03-1.89.03-1.83,0-1.87,0-2.99,2.52-3.14,4.72-3.14v3.53l-1.79.91ZM70.28,79.03v-1.79h1.62v1.79h-1.62ZM72.59,79.03v-1.79h1.62v1.79h-1.62Z"/>
      <path class="cls-1" d="M79.52,79.01v-.73h.63v-.11c0-.36.11-1.32,1.17-1.32.56,0,.9.23,1.1.7-.11.01-.76.14-.76.14-.1-.14-.2-.19-.31-.19-.41,0-.41.41-.41.63v.14h1.64v.73h-3.06ZM80.58,76.14v-9.26h1.79v9.26h-1.79Z"/>
      <path class="cls-1" d="M91.19,76.14h-1.89c-.94,0-1.32.43-1.32,1.3v1.23h-1.79v-1.29c0-1.54.79-2.72,2.36-2.87-.26-.56-.37-1.22-.37-1.99,0-2.14,1.1-3.62,3-3.62s3.03,1.46,3.03,3.63-1.06,3.6-3.03,3.6ZM91.19,70.46c-.7,0-1.17.5-1.17,2.04s.47,1.99,1.17,1.99,1.22-.54,1.22-1.97c0-1.56-.49-2.06-1.22-2.06Z"/>
      <path class="cls-1" d="M94.54,79.01v-.73h.63v-.11c0-.36.11-1.32,1.17-1.32.56,0,.9.23,1.1.7-.11.01-.76.14-.76.14-.1-.14-.2-.19-.31-.19-.41,0-.41.41-.41.63v.14h1.64v.73h-3.06ZM95.59,76.14v-9.26h1.79v9.26h-1.79Z"/>
      <g>
        <path class="cls-1" d="M79.93,98.73v-9.96l-4.29,6.52h-.09l-4.25-6.45v9.89h-3.29v-15.26h3.62l4.01,6.45,4.01-6.45h3.62v15.26h-3.33Z"/>
        <path class="cls-1" d="M85.98,98.73v-15.26h11.51v2.99h-8.17v3.09h7.19v2.99h-7.19v3.2h8.28v2.99h-11.62Z"/>
      </g>
    </g>
  </g>
</svg>